<svg width="48" height="48" viewBox="0 0 48 48" fill="none" xmlns="http://www.w3.org/2000/svg">
<path d="M21.0284 41.3029C21.5409 41.2016 22.026 40.9833 22.4495 40.663C22.8731 40.3428 23.2247 39.9287 23.4796 39.4501L29.8471 27.4905C29.9139 27.365 29.9484 27.2231 29.9465 27.0793C29.9448 26.9352 29.907 26.7943 29.8372 26.6705L19.0726 7.61194C18.8984 7.30353 18.6619 7.03926 18.3798 6.83789C18.0976 6.63652 17.7769 6.50298 17.4402 6.44675C17.3203 6.42669 17.1984 6.41656 17.0769 6.41653L9.44014 6.41406C9.41795 6.41405 9.39575 6.41517 9.37366 6.41741C9.22237 6.43273 9.08007 6.50005 8.96875 6.60898C9.00303 6.6212 9.03708 6.63417 9.07086 6.64787C9.63468 6.87662 10.1059 7.30377 10.4044 7.85678L20.209 26.0184C20.4318 26.4313 20.5497 26.8978 20.5512 27.3727C20.5526 27.8476 20.4375 28.3147 20.2171 28.7291L13.2715 41.2225C13.2615 41.2404 13.2576 41.2615 13.2603 41.2822C13.263 41.3027 13.2722 41.3218 13.2864 41.3362C13.317 41.3679 13.3628 41.3872 13.4058 41.3867L20.3801 41.3673C20.5976 41.3668 20.8146 41.3451 21.0284 41.3029Z" fill="url(#paint0_linear_5811_17627)"/>
<path d="M25.6406 19.2435L32.7411 7.75067C32.8658 7.54877 33.0135 7.36372 33.1811 7.19969C33.695 6.6965 34.3697 6.41493 35.0716 6.41078L41.1301 6.375C41.1406 6.37493 41.1511 6.37634 41.1612 6.37915C41.1788 6.38404 41.1949 6.39312 41.2087 6.40568C41.2224 6.41825 41.2331 6.43396 41.2402 6.45161C41.2471 6.46925 41.2503 6.48836 41.2492 6.50746C41.248 6.52655 41.2426 6.54511 41.2336 6.56171L29.8442 27.4946" fill="url(#paint1_linear_5811_17627)"/>
<path d="M25.6406 19.2435L32.741 7.75067C32.8658 7.54877 33.0136 7.36372 33.1811 7.19969C33.695 6.6965 34.3698 6.41493 35.0716 6.41078L41.1301 6.375C41.1405 6.37493 41.151 6.37634 41.1611 6.37915C41.1787 6.38404 41.1949 6.39312 41.2086 6.40568C41.2223 6.41825 41.2331 6.43396 41.2401 6.45161C41.2471 6.46925 41.2502 6.48836 41.2491 6.50745C41.2479 6.52655 41.2426 6.54511 41.2336 6.56171L29.8441 27.4945" fill="url(#paint2_linear_5811_17627)"/>
<path d="M20.2079 26.0189L10.4034 7.85717C10.1049 7.30417 9.63365 6.87701 9.06983 6.64826C9.03606 6.63456 9.002 6.62159 8.96772 6.60938C8.8781 6.69706 8.81218 6.80818 8.77667 6.93141L6.89215 13.4691C6.82385 13.706 6.77982 13.95 6.7608 14.1968C6.71896 14.7399 6.79907 15.2857 6.99466 15.7901C7.19025 16.2945 7.49583 16.7435 7.88671 17.1006L20.3355 28.4752C20.4962 28.0832 20.5684 27.6575 20.5462 27.2313C20.5241 26.805 20.4083 26.39 20.2079 26.0189Z" fill="url(#paint3_linear_5811_17627)"/>
<defs>
<linearGradient id="paint0_linear_5811_17627" x1="19.4577" y1="6.41406" x2="19.4577" y2="41.3867" gradientUnits="userSpaceOnUse">
<stop stop-color="#2196F3"/>
<stop offset="1" stop-color="#1356BD"/>
</linearGradient>
<linearGradient id="paint1_linear_5811_17627" x1="26.9221" y1="24.12" x2="38.5962" y2="6.92068" gradientUnits="userSpaceOnUse">
<stop stop-color="#263238"/>
<stop offset="1" stop-color="#607D8B"/>
</linearGradient>
<linearGradient id="paint2_linear_5811_17627" x1="26.922" y1="24.12" x2="38.5962" y2="6.92069" gradientUnits="userSpaceOnUse">
<stop stop-color="#343940"/>
<stop offset="1" stop-color="#B0B8C1"/>
</linearGradient>
<linearGradient id="paint3_linear_5811_17627" x1="10.7773" y1="5.66195" x2="10.7773" y2="28.5091" gradientUnits="userSpaceOnUse">
<stop offset="0.00312229" stop-color="#01579B"/>
<stop offset="1" stop-color="#039BE5"/>
</linearGradient>
</defs>
</svg>
