<svg width="16" height="16" viewBox="0 0 16 16" fill="none" xmlns="http://www.w3.org/2000/svg">
<path d="M7.00818 13.7624C7.179 13.7287 7.3407 13.6559 7.48188 13.5491C7.62305 13.4424 7.74026 13.3044 7.82523 13.1448L9.94774 9.15831C9.97001 9.11646 9.9815 9.06916 9.98087 9.02121C9.98031 8.97319 9.9677 8.92622 9.94443 8.88497L6.35623 2.5321C6.29817 2.4293 6.21932 2.34121 6.12528 2.27409C6.03124 2.20696 5.92433 2.16245 5.81211 2.14371C5.77212 2.13702 5.73151 2.13364 5.69101 2.13364L3.14541 2.13281C3.13802 2.13281 3.13061 2.13318 3.12325 2.13393C3.07282 2.13903 3.02539 2.16148 2.98828 2.19779C2.99971 2.20186 3.01106 2.20618 3.02232 2.21075C3.21026 2.287 3.36732 2.42938 3.46684 2.61372L6.73502 8.6676C6.80931 8.80522 6.8486 8.96071 6.84908 9.11902C6.84956 9.27733 6.81121 9.43302 6.73775 9.57116L4.42253 13.7356C4.41921 13.7416 4.41789 13.7486 4.41879 13.7555C4.41969 13.7624 4.42276 13.7687 4.42751 13.7735C4.4377 13.7841 4.45296 13.7905 4.46728 13.7903L6.79206 13.7839C6.86457 13.7837 6.93691 13.7765 7.00818 13.7624Z" fill="url(#paint0_linear_5811_17617)"/>
<path d="M8.54688 6.4145L10.9137 2.58356C10.9553 2.51626 11.0045 2.45457 11.0604 2.3999C11.2317 2.23217 11.4566 2.13831 11.6905 2.13693L13.71 2.125C13.7135 2.12498 13.717 2.12545 13.7204 2.12638C13.7263 2.12801 13.7316 2.13104 13.7362 2.13523C13.7408 2.13942 13.7444 2.14465 13.7467 2.15054C13.749 2.15642 13.7501 2.16279 13.7497 2.16915C13.7493 2.17552 13.7475 2.1817 13.7445 2.18724L9.94806 9.16486" fill="url(#paint1_linear_5811_17617)"/>
<path d="M8.54688 6.4145L10.9137 2.58356C10.9553 2.51626 11.0045 2.45457 11.0604 2.3999C11.2317 2.23217 11.4566 2.13831 11.6905 2.13693L13.71 2.125C13.7135 2.12498 13.717 2.12545 13.7204 2.12638C13.7262 2.12801 13.7316 2.13104 13.7362 2.13523C13.7408 2.13942 13.7444 2.14465 13.7467 2.15054C13.749 2.15642 13.7501 2.16279 13.7497 2.16915C13.7493 2.17552 13.7475 2.1817 13.7445 2.18724L9.94804 9.16484" fill="url(#paint2_linear_5811_17617)"/>
<path d="M6.73598 8.67296L3.4678 2.61906C3.36828 2.43472 3.21122 2.29234 3.02328 2.21609C3.01202 2.21152 3.00067 2.2072 2.98924 2.20312C2.95937 2.23235 2.9374 2.26939 2.92556 2.31047L2.29738 4.4897C2.27462 4.56868 2.25994 4.65001 2.2536 4.73228C2.23965 4.91329 2.26636 5.09522 2.33155 5.26337C2.39675 5.43152 2.49861 5.58116 2.6289 5.70021L6.77851 9.49172C6.83208 9.36106 6.85612 9.21917 6.84874 9.07709C6.84136 8.935 6.80276 8.79666 6.73598 8.67296Z" fill="url(#paint3_linear_5811_17617)"/>
<defs>
<linearGradient id="paint0_linear_5811_17617" x1="6.48459" y1="2.13281" x2="6.48459" y2="13.7903" gradientUnits="userSpaceOnUse">
<stop stop-color="#2196F3"/>
<stop offset="1" stop-color="#1356BD"/>
</linearGradient>
<linearGradient id="paint1_linear_5811_17617" x1="8.97404" y1="8.03999" x2="12.8654" y2="2.30689" gradientUnits="userSpaceOnUse">
<stop stop-color="#263238"/>
<stop offset="1" stop-color="#607D8B"/>
</linearGradient>
<linearGradient id="paint2_linear_5811_17617" x1="8.974" y1="8.03999" x2="12.8654" y2="2.3069" gradientUnits="userSpaceOnUse">
<stop stop-color="#343940"/>
<stop offset="1" stop-color="#B0B8C1"/>
</linearGradient>
<linearGradient id="paint3_linear_5811_17617" x1="3.59244" y1="1.88732" x2="3.59244" y2="9.50302" gradientUnits="userSpaceOnUse">
<stop offset="0.00312229" stop-color="#01579B"/>
<stop offset="1" stop-color="#039BE5"/>
</linearGradient>
</defs>
</svg>
