<svg width="32" height="32" viewBox="0 0 32 32" fill="none" xmlns="http://www.w3.org/2000/svg">
<path d="M14.0203 27.5327C14.3619 27.4651 14.6853 27.3196 14.9677 27.1061C15.25 26.8926 15.4844 26.6166 15.6544 26.2974L19.8994 18.3244C19.9439 18.2407 19.9669 18.1461 19.9657 18.0502C19.9645 17.9542 19.9393 17.8603 19.8928 17.7778L12.7164 5.07202C12.6002 4.86641 12.4425 4.69024 12.2545 4.55599C12.0664 4.42174 11.8526 4.33271 11.6281 4.29523C11.5481 4.28186 11.4669 4.2751 11.3859 4.27509L6.29473 4.27344C6.27994 4.27343 6.26514 4.27418 6.25041 4.27567C6.14955 4.28588 6.05468 4.33076 5.98047 4.40338C6.00332 4.41153 6.02602 4.42017 6.04854 4.42931C6.42442 4.58181 6.73855 4.86658 6.93758 5.23525L13.4739 17.343C13.6225 17.6183 13.7011 17.9292 13.7021 18.2459C13.703 18.5625 13.6263 18.8738 13.4794 19.1501L8.84897 27.4791C8.84232 27.491 8.83969 27.5051 8.84148 27.5189C8.84329 27.5325 8.84943 27.5453 8.85893 27.5549C8.87931 27.576 8.90983 27.5889 8.93847 27.5885L13.588 27.5756C13.733 27.5752 13.8777 27.5608 14.0203 27.5327Z" fill="url(#paint0_linear_5811_17622)"/>
<path d="M17.0938 12.829L21.8274 5.16711C21.9106 5.03251 22.009 4.90915 22.1207 4.79979C22.4633 4.46433 22.9132 4.27662 23.3811 4.27385L27.4201 4.25C27.427 4.24995 27.434 4.25089 27.4408 4.25276C27.4525 4.25602 27.4632 4.26208 27.4725 4.27045C27.4816 4.27883 27.4887 4.28931 27.4934 4.30107C27.4981 4.31284 27.5002 4.32558 27.4994 4.3383C27.4987 4.35103 27.4951 4.36341 27.4891 4.37447L19.8961 18.3297" fill="url(#paint1_linear_5811_17622)"/>
<path d="M17.0938 12.829L21.8274 5.16711C21.9105 5.03251 22.009 4.90915 22.1207 4.79979C22.4633 4.46433 22.9132 4.27662 23.3811 4.27385L27.4201 4.25C27.427 4.24995 27.434 4.25089 27.4407 4.25276C27.4524 4.25602 27.4633 4.26208 27.4724 4.27045C27.4816 4.27883 27.4887 4.28931 27.4934 4.30107C27.4981 4.31284 27.5001 4.32558 27.4994 4.3383C27.4986 4.35103 27.4951 4.36341 27.4891 4.37447L19.8961 18.3297" fill="url(#paint2_linear_5811_17622)"/>
<path d="M13.472 17.3459L6.93559 5.23811C6.73657 4.86944 6.42243 4.58467 6.04655 4.43218C6.02404 4.42304 6.00134 4.41439 5.97848 4.40625C5.91874 4.46471 5.87479 4.53878 5.85111 4.62094L4.59477 8.97941C4.54923 9.13736 4.51988 9.30001 4.5072 9.46455C4.47931 9.82658 4.53271 10.1904 4.66311 10.5267C4.7935 10.863 4.99722 11.1623 5.25781 11.4004L13.557 18.9834C13.6642 18.7221 13.7122 18.4383 13.6975 18.1542C13.6827 17.87 13.6055 17.5933 13.472 17.3459Z" fill="url(#paint3_linear_5811_17622)"/>
<defs>
<linearGradient id="paint0_linear_5811_17622" x1="12.9731" y1="4.27344" x2="12.9731" y2="27.5885" gradientUnits="userSpaceOnUse">
<stop stop-color="#2196F3"/>
<stop offset="1" stop-color="#1356BD"/>
</linearGradient>
<linearGradient id="paint1_linear_5811_17622" x1="17.9481" y1="16.08" x2="25.7308" y2="4.61379" gradientUnits="userSpaceOnUse">
<stop stop-color="#263238"/>
<stop offset="1" stop-color="#607D8B"/>
</linearGradient>
<linearGradient id="paint2_linear_5811_17622" x1="17.948" y1="16.08" x2="25.7308" y2="4.61379" gradientUnits="userSpaceOnUse">
<stop stop-color="#343940"/>
<stop offset="1" stop-color="#B0B8C1"/>
</linearGradient>
<linearGradient id="paint3_linear_5811_17622" x1="7.18489" y1="3.77464" x2="7.18489" y2="19.006" gradientUnits="userSpaceOnUse">
<stop offset="0.00312229" stop-color="#01579B"/>
<stop offset="1" stop-color="#039BE5"/>
</linearGradient>
</defs>
</svg>
